Coordinates
version=1
nRows=13
nColumns=40
inDegrees=yes

Units are S.I. units (second, meters, Newtons, ...)
Angles are in degrees.

endheader
time	pelvis_tilt	pelvis_list	pelvis_rotation	pelvis_tx	pelvis_ty	pelvis_tz	hip_flexion_r	hip_adduction_r	hip_rotation_r	knee_angle_r	knee_angle_r_beta	ankle_angle_r	subtalar_angle_r	mtp_angle_r	hip_flexion_l	hip_adduction_l	hip_rotation_l	knee_angle_l	knee_angle_l_beta	ankle_angle_l	subtalar_angle_l	mtp_angle_l	lumbar_extension	lumbar_bending	lumbar_rotation	arm_flex_r	arm_add_r	arm_rot_r	elbow_flex_r	pro_sup_r	wrist_flex_r	wrist_dev_r	arm_flex_l	arm_add_l	arm_rot_l	elbow_flex_l	pro_sup_l	wrist_flex_l	wrist_dev_l
      4.65000000	     -3.73754437	     -6.10140313	      0.33987978	      0.89200297	      0.93283810	      0.55555979	      9.25518941	      5.39013743	    -21.39369569	     11.35328469	     11.35328469	      9.02041795	      8.06790553	     -7.05122276	     35.14582307	    -16.66746585	     -4.20802090	     52.90954914	     52.90954914	     12.03327818	    -18.78958083	     15.41949074	    -13.84231670	      9.44085798	      4.34827826	     31.15117667	    -18.85921984	     -0.06078968	     52.07485394	     45.26915478	      0.00000000	      0.00000000	     -6.35694103	     -6.96796167	     -1.63799224	     35.95518454	     45.19624211	      0.00000000	      0.00000000
      4.66142857	     -3.88272766	     -6.10131013	      0.47991988	      0.89071558	      0.93273117	      0.55609176	      8.68514749	      5.54241533	    -21.27900519	     10.87781750	     10.87781750	      9.21081335	      8.01808550	     -7.08391390	     36.03872428	    -16.32985323	     -3.79442139	     50.43203436	     50.43203436	     11.96549304	    -18.54509971	     15.44099467	    -13.76717812	      9.33877953	      3.81910131	     33.06671120	    -18.42203842	     -0.05302730	     54.34082463	     45.20130335	      0.00000000	      0.00000000	     -7.63618177	     -7.00177819	     -1.67765974	     34.68614112	     45.20150848	      0.00000000	      0.00000000
      4.67285714	     -4.00303770	     -6.12166018	      0.63602191	      0.88948133	      0.93261901	      0.55656028	      8.07041369	      5.69673497	    -21.35562917	     10.37899935	     10.37899935	      9.40735852	      8.26299327	     -7.13927948	     36.69735666	    -15.97858031	     -3.37364998	     47.64848069	     47.64848069	     11.65968279	    -18.21665155	     15.18719510	    -13.73617892	      9.28687171	      3.39631959	     34.78870194	    -18.11197400	      0.06642635	     57.02378392	     45.11433441	      0.00000000	      0.00000000	     -8.70781138	     -6.98639687	     -1.74544450	     33.14116800	     45.21493415	      0.00000000	      0.00000000
      4.68428571	     -4.15227227	     -6.21758714	      0.75235918	      0.88835892	      0.93231781	      0.55699917	      7.48518589	      5.90183344	    -21.65942705	      9.89165360	      9.89165360	      9.59749537	      8.92263308	     -7.29622057	     37.16079403	    -15.75672590	     -3.07188031	     44.55949413	     44.55949413	     10.61296248	    -17.80114931	     12.81353902	    -13.73764679	      9.33617944	      4.23517090	     34.94974420	    -19.55686960	      0.49954435	     62.72724063	     44.92667369	      0.00000000	      0.00000000	     -8.34483529	     -6.64419776	     -2.44205690	     29.65055804	     45.41191701	      0.00000000	      0.00000000
      4.69571429	     -4.26561369	     -6.23045049	      0.84818180	      0.88732211	      0.93210030	      0.55744508	      6.85759943	      6.05733677	    -21.66716109	      9.38542241	      9.38542241	      9.82425823	      9.16480278	     -7.25439247	     37.48602072	    -15.41902485	     -2.72470455	     41.49501004	     41.49501004	     10.41918468	    -17.05763185	     12.92093274	    -13.68933969	      9.25334991	      3.90488360	     36.73186320	    -19.08593392	      0.27117863	     64.80946062	     44.87908346	      0.00000000	      0.00000000	     -9.45096546	     -6.68538735	     -2.48015647	     28.59145464	     45.41771990	      0.00000000	      0.00000000
      4.70714286	     -4.46634006	     -6.24378791	      0.88555545	      0.88630607	      0.93171814	      0.55785641	      6.31057594	      6.20181731	    -21.70438419	      8.85469100	      8.85469100	     10.01768890	      9.57147516	     -7.22049979	     37.77950058	    -15.14172926	     -2.50060507	     38.37786838	     38.37786838	     10.28787178	    -15.96444421	     13.02689391	    -13.57466323	      9.16451240	      3.75047286	     38.39533219	    -18.81406108	      0.12773281	     66.95740609	     44.82425103	      0.00000000	      0.00000000	    -10.41656967	     -6.70178925	     -2.51817567	     27.64458003	     45.42218595	      0.00000000	      0.00000000
      4.71857143	     -4.55007006	     -6.36209233	      0.92880203	      0.88551507	      0.93143912	      0.55826067	      5.55651953	      6.48075443	    -21.89352825	      8.18405947	      8.18405947	     10.19043919	     10.23883002	     -7.12586452	     37.88403307	    -15.01324799	     -2.33314345	     35.29437441	     35.29437441	     10.10031396	    -14.68532857	     13.01890950	    -13.60096569	      9.18748401	      3.45585709	     39.69271014	    -18.38638886	      0.07100563	     70.03265462	     44.73637484	      0.00000000	      0.00000000	    -11.40569645	     -6.74606334	     -2.60279150	     26.48617622	     45.44046195	      0.00000000	      0.00000000
      4.73000000	     -4.75083569	     -6.51455279	      0.93077088	      0.88476584	      0.93086211	      0.55850921	      4.97442173	      6.74494435	    -22.22235697	      7.63241393	      7.63241393	     10.51207922	     11.19092620	     -6.75144333	     38.06392299	    -14.94929532	     -2.26450494	     32.29795617	     32.29795617	      9.66620561	    -13.33404217	     12.24427926	    -13.59479427	      9.27734866	      4.57553675	     39.49782746	    -19.61925082	     -0.64862277	     75.85313033	     44.61197831	      0.00000000	      0.00000000	    -11.29987064	     -6.70187212	     -3.10348902	     24.90106583	     45.60615733	      0.00000000	      0.00000000
      4.74142857	     -4.94021392	     -6.58006059	      0.87072423	      0.88408826	      0.93032430	      0.55880211	      4.38291317	      6.94848735	    -22.16339683	      7.07642499	      7.07642499	     10.69050836	     11.63419866	     -6.65852032	     38.15560309	    -14.84542565	     -2.36523902	     29.45380743	     29.45380743	      9.61228907	    -11.90402474	     12.64822776	    -13.48030282	      9.21511336	      4.28517737	     40.92004508	    -18.99609591	     -0.79412033	     78.03543603	     44.56155334	      0.00000000	      0.00000000	    -12.31357075	     -6.77638363	     -3.15611709	     24.32472049	     45.61160012	      0.00000000	      0.00000000
      4.75285714	     -5.16239714	     -6.71406427	      0.79755042	      0.88350839	      0.92961009	      0.55893516	      3.79718297	      7.20401151	    -22.30883035	      6.49371048	      6.49371048	     10.98775689	     12.35235696	     -6.25796767	     38.34411245	    -14.85805938	     -2.63148164	     26.95518603	     26.95518603	      9.57530003	    -10.43506141	     13.22784349	    -13.41330275	      9.26508048	      4.70105354	     41.42789625	    -19.23864014	     -1.25096942	     82.22687820	     44.48714608	      0.00000000	      0.00000000	    -13.04619945	     -6.85754551	     -3.44917377	     24.33956865	     45.69234091	      0.00000000	      0.00000000
      4.76428571	     -5.37778814	     -6.77301254	      0.68466093	      0.88298692	      0.92885830	      0.55895111	      3.26553890	      7.35749810	    -22.21338146	      6.03479161	      6.03479161	     11.21137445	     12.72652085	     -6.17574911	     38.43683473	    -14.78575984	     -2.98089120	     24.62417382	     24.62417382	      9.39861488	     -9.31220715	     13.79655039	    -13.28451922	      9.21046830	      4.45981678	     42.68686051	    -18.64137721	     -1.27423214	     84.44892875	     44.43238304	      0.00000000	      0.00000000	    -13.98816237	     -6.90443880	     -3.48298550	     24.06490191	     45.69026861	      0.00000000	      0.00000000
      4.77571429	     -5.60387605	     -6.84975342	      0.56130388	      0.88261564	      0.92798652	      0.55884727	      2.75290060	      7.51390004	    -22.12436567	      5.62002782	      5.62002782	     11.45234514	     13.09867590	     -6.08329663	     38.56344261	    -14.73919171	     -3.41437209	     22.66633872	     22.66633872	      9.18591573	     -8.37835214	     14.36829203	    -13.13437172	      9.18690849	      4.33151467	     43.77676999	    -18.17813120	     -1.25235261	     86.83923665	     44.36841893	      0.00000000	      0.00000000	    -14.87095706	     -6.93643458	     -3.54751554	     24.04500774	     45.69039462	      0.00000000	      0.00000000
      4.78714286	     -5.81517614	     -6.98484556	      0.42357280	      0.88242822	      0.92696857	      0.55861959	      2.23093651	      7.70952961	    -22.05518904	      5.26055019	      5.26055019	     11.84863612	     13.54507209	     -5.54584893	     38.79298795	    -14.76447715	     -3.85351860	     21.30880522	     21.30880522	      9.17486849	     -7.61406634	     15.21845468	    -13.09620563	      9.23069437	      4.81520293	     43.94629146	    -18.56671303	     -1.65637657	     91.50946879	     44.28565138	      0.00000000	      0.00000000	    -15.78496014	     -7.09716514	     -3.71122089	     25.20292258	     45.72087643	      0.00000000	      0.00000000
